#define 100c7a6e64064a25d5edc121c67cf6bdYmZaJkjwhCPTOLjK_width 48
#define 100c7a6e64064a25d5edc121c67cf6bdYmZaJkjwhCPTOLjK_height 48
static char 100c7a6e64064a25d5edc121c67cf6bdYmZaJkjwhCPTOLjK_bits[] = {
  0x00, 0x00, 0x00, 0x00, 0x00, 0x00, 0x00, 0x00, 0x00, 0x00, 0x00, 0x00, 
  0x00, 0x00, 0x00, 0x00, 0x00, 0x00, 0x00, 0x00, 0x00, 0x00, 0x02, 0x00, 
  0x00, 0x02, 0x40, 0x80, 0x01, 0x00, 0x00, 0x40, 0x28, 0x02, 0x40, 0x00, 
  0x00, 0x40, 0x00, 0x04, 0x21, 0x00, 0x00, 0xE2, 0xC1, 0x23, 0x03, 0x00, 
  0x40, 0xD0, 0xC2, 0x21, 0x87, 0x00, 0x00, 0xC2, 0x80, 0x05, 0x13, 0x02, 
  0x00, 0xC4, 0x98, 0x81, 0x07, 0x00, 0x20, 0xE1, 0x81, 0x03, 0x43, 0x02, 
  0x40, 0xC0, 0x80, 0x11, 0x07, 0x08, 0x00, 0xE8, 0xC8, 0x81, 0x23, 0x00, 
  0x00, 0xC0, 0xF2, 0x0F, 0x43, 0x00, 0x00, 0xC1, 0xF0, 0x2F, 0x23, 0x04, 
  0x00, 0xE0, 0x44, 0x11, 0x87, 0x00, 0x00, 0xC0, 0xE0, 0x87, 0x23, 0x08, 
  0x00, 0xF0, 0xA7, 0x27, 0x07, 0x00, 0x00, 0xF8, 0xE7, 0x07, 0x43, 0x02, 
  0x00, 0x00, 0xE0, 0x47, 0x87, 0x10, 0x00, 0xE0, 0xE1, 0x07, 0x03, 0x01, 
  0x00, 0xF0, 0xC3, 0xE5, 0x1F, 0x00, 0x00, 0xB0, 0x03, 0xE1, 0x1F, 0x04, 
  0x00, 0xF0, 0xF3, 0x8F, 0x82, 0x08, 0x00, 0xE0, 0xE3, 0xC7, 0x1F, 0x00, 
  0x00, 0xF0, 0x83, 0xC1, 0x4D, 0x01, 0x00, 0x00, 0x80, 0x81, 0x0F, 0x00, 
  0x00, 0xF0, 0x83, 0xC1, 0x9D, 0x00, 0x00, 0xF8, 0x87, 0xC1, 0x0F, 0x02, 
  0x00, 0xC0, 0x80, 0x81, 0x07, 0x04, 0x00, 0xC0, 0x80, 0x41, 0x0A, 0x01, 
  0x00, 0xC0, 0x80, 0xC1, 0x1F, 0x01, 0x00, 0xC0, 0x80, 0xE1, 0x1F, 0x04, 
  0x00, 0xC0, 0x80, 0x01, 0x83, 0x00, 0x00, 0xC0, 0x80, 0x41, 0x0B, 0x02, 
  0x00, 0xC0, 0x80, 0x01, 0x07, 0x00, 0x00, 0xC0, 0x80, 0x81, 0x03, 0x02, 
  0x00, 0xC0, 0x80, 0x01, 0x87, 0x00, 0x00, 0xC0, 0x80, 0x21, 0x13, 0x01, 
  0x00, 0xC0, 0x80, 0x01, 0x0B, 0x00, 0x00, 0x00, 0x00, 0x40, 0x21, 0x00, 
  0x00, 0x00, 0x00, 0x00, 0x00, 0x00, 0x00, 0x00, 0x00, 0x00, 0x10, 0x00, 
  0x00, 0x00, 0x00, 0x00, 0x04, 0x00, 0x00, 0x00, 0x00, 0x00, 0x00, 0x00, 
  0x00, 0x00, 0x00, 0x00, 0x00, 0x00, 0x00, 0x00, 0x00, 0x00, 0x00, 0x00, 
  };
